<svg width="480" height="300" viewBox="0 0 480 300" fill="none" xmlns="http://www.w3.org/2000/svg">
    <g clip-path="url(#clip0_24216_1409)">
        <rect width="480" height="300" fill="#FFEDE9" />
        <path
            d="M241.5 203C153.9 203 106 209.667 92 212V281H394V212C380.333 209.667 329.1 203 241.5 203Z"
            fill="#D2997C" />
        <g opacity="0.97">
            <path opacity="0.9" fill-rule="evenodd" clip-rule="evenodd"
                d="M301 211.901C301 243.934 275.033 269.901 243 269.901C210.967 269.901 185 243.934 185 211.901C185 179.869 210.967 153.901 243 153.901C275.033 153.901 301 179.869 301 211.901ZM268 211.901C268 225.708 256.807 236.901 243 236.901C229.193 236.901 218 225.708 218 211.901C218 198.094 229.193 186.901 243 186.901C256.807 186.901 268 198.094 268 211.901Z"
                fill="#E17D74" />
            <path
                d="M266 211.901C266 224.604 255.703 234.901 243 234.901C230.297 234.901 220 224.604 220 211.901C220 199.199 230.297 188.901 243 188.901C255.703 188.901 266 199.199 266 211.901Z"
                stroke="white" stroke-width="4" />
            <path fill-rule="evenodd" clip-rule="evenodd"
                d="M243 341.948C314.534 341.948 372.523 283.959 372.523 212.425C372.523 140.891 314.534 82.9014 243 82.9014C171.466 82.9014 113.477 140.891 113.477 212.425C113.477 283.959 171.466 341.948 243 341.948ZM243 264.234C271.613 264.234 294.809 241.038 294.809 212.425C294.809 183.811 271.613 160.615 243 160.615C214.386 160.615 191.191 183.811 191.191 212.425C191.191 241.038 214.386 264.234 243 264.234Z"
                fill="#CF5146" />
            <path
                d="M370.523 212.425C370.523 282.854 313.429 339.948 243 339.948C172.571 339.948 115.477 282.854 115.477 212.425C115.477 141.996 172.571 84.9014 243 84.9014C313.429 84.9014 370.523 141.996 370.523 212.425Z"
                stroke="white" stroke-width="4" />
            <path
                d="M362.5 212.401C362.5 278.121 309 331.401 243 331.401C177 331.401 123.5 278.121 123.5 212.401C123.5 146.681 177 93.4014 243 93.4014C309 93.4014 362.5 146.681 362.5 212.401Z"
                stroke="white" stroke-opacity="0.3" />
            <path
                d="M301.5 212.401C301.5 244.43 275.313 270.401 243 270.401C210.687 270.401 184.5 244.43 184.5 212.401C184.5 180.373 210.687 154.401 243 154.401C275.313 154.401 301.5 180.373 301.5 212.401Z"
                stroke="white" stroke-opacity="0.15" />
            <g opacity="0.6">
                <path
                    d="M131.861 208.144L132.074 204.326L132.641 204.358L132.465 207.521L134.382 207.628L134.548 204.632L135.115 204.664L134.949 207.659L137.601 207.807L137.564 208.462L131.861 208.144Z"
                    fill="white" />
                <path
                    d="M133.759 202.711L133.837 202.02L137.223 201.132L134.118 199.548L134.198 198.848L139.625 201.744L139.547 202.435L137.958 201.538L133.759 202.711Z"
                    fill="white" />
                <path
                    d="M133.371 192.947L133.477 192.315L139.22 193.282L139.121 193.874L138.45 193.761C138.923 194.133 139.106 194.634 139.003 195.25C138.902 195.849 138.603 196.277 138.121 196.537C137.675 196.778 137.144 196.843 136.529 196.74C135.93 196.639 135.466 196.406 135.123 196.032C134.737 195.627 134.6 195.141 134.698 194.557C134.796 193.973 135.156 193.572 135.785 193.353L133.371 192.947ZM135.241 194.511C135.166 194.96 135.266 195.326 135.545 195.6C135.786 195.852 136.149 196.01 136.638 196.093C137.127 196.175 137.53 196.145 137.847 195.996C138.2 195.828 138.421 195.525 138.495 195.083C138.564 194.673 138.46 194.331 138.183 194.049C137.932 193.804 137.578 193.639 137.121 193.562L137.042 193.548C136.569 193.469 136.162 193.522 135.833 193.694C135.495 193.872 135.302 194.148 135.241 194.511Z"
                    fill="white" />
                <path
                    d="M135.838 188.588C135.983 187.94 136.312 187.497 136.822 187.267C137.279 187.058 137.868 187.025 138.574 187.167L137.861 190.352C138.321 190.422 138.699 190.384 138.997 190.221C139.296 190.059 139.489 189.782 139.575 189.4C139.648 189.072 139.623 188.779 139.505 188.54C139.403 188.336 139.222 188.156 138.963 187.992L139.103 187.368C139.473 187.549 139.745 187.798 139.933 188.127C140.155 188.529 140.215 188.994 140.098 189.517C139.969 190.094 139.669 190.519 139.217 190.779C138.746 191.05 138.192 191.107 137.537 190.96C136.943 190.827 136.48 190.551 136.159 190.119C135.815 189.681 135.707 189.173 135.838 188.588ZM136.364 188.689C136.284 189.048 136.336 189.363 136.522 189.634C136.707 189.905 136.991 190.1 137.381 190.228L137.945 187.707C137.061 187.591 136.536 187.924 136.364 188.689Z"
                    fill="white" />
                <path
                    d="M136.026 181.409C136.264 180.595 136.724 180.021 137.416 179.707C138.069 179.414 138.812 179.382 139.649 179.626C140.478 179.869 141.078 180.295 141.47 180.893C141.876 181.529 141.961 182.262 141.721 183.084C141.48 183.905 141.015 184.469 140.331 184.786C139.676 185.086 138.935 185.111 138.114 184.87C137.285 184.628 136.674 184.207 136.285 183.602C135.871 182.964 135.783 182.238 136.026 181.409ZM136.587 181.573C136.402 182.202 136.471 182.764 136.803 183.253C137.119 183.712 137.615 184.041 138.298 184.241C138.974 184.439 139.568 184.429 140.082 184.213C140.615 183.985 140.976 183.549 141.16 182.92C141.345 182.29 141.276 181.728 140.965 181.254C140.649 180.794 140.155 180.458 139.464 180.256C138.766 180.052 138.161 180.066 137.648 180.283C137.122 180.512 136.771 180.943 136.587 181.573Z"
                    fill="white" />
                <path
                    d="M138.377 174.147C138.6 173.548 138.914 173.118 139.319 172.876C139.738 172.623 140.241 172.579 140.823 172.736L140.597 173.343C140.182 173.266 139.841 173.31 139.567 173.472C139.283 173.64 139.067 173.944 138.906 174.378C138.758 174.776 138.703 175.105 138.754 175.381C138.81 175.691 138.987 175.903 139.294 176.017C139.564 176.117 139.838 176.048 140.117 175.802C140.242 175.695 140.477 175.407 140.82 174.946C141.292 174.319 141.638 173.918 141.856 173.744C142.291 173.402 142.749 173.317 143.237 173.498C143.702 173.671 144.007 173.998 144.137 174.473C144.26 174.946 144.208 175.498 143.971 176.136C143.736 176.765 143.417 177.21 143.013 177.469C142.535 177.769 141.961 177.82 141.284 177.62L141.51 177.012C141.995 177.133 142.401 177.096 142.719 176.907C143.006 176.733 143.245 176.412 143.423 175.932C143.585 175.497 143.637 175.106 143.572 174.775C143.508 174.444 143.333 174.225 143.048 174.119C142.711 173.994 142.381 174.076 142.063 174.358C141.917 174.475 141.647 174.81 141.252 175.345C140.817 175.918 140.513 176.274 140.359 176.413C139.966 176.736 139.545 176.81 139.096 176.643C138.631 176.47 138.336 176.138 138.229 175.646C138.12 175.204 138.17 174.702 138.377 174.147Z"
                    fill="white" />
                <path
                    d="M144.074 164.645C144.298 164.184 144.585 163.87 144.937 163.695C145.3 163.516 145.722 163.508 146.207 163.664L145.93 164.232C145.618 164.142 145.346 164.152 145.115 164.262C144.88 164.379 144.7 164.585 144.556 164.879C144.381 165.239 144.377 165.593 144.549 165.935C144.717 166.266 145.027 166.542 145.48 166.763C145.933 166.983 146.339 167.065 146.696 166.99C147.049 166.922 147.326 166.701 147.508 166.327C147.817 165.694 147.672 165.169 147.074 164.771L147.354 164.196C147.787 164.513 148.066 164.872 148.17 165.279C148.271 165.675 148.214 166.101 147.99 166.562C147.717 167.122 147.319 167.463 146.795 167.59C146.299 167.713 145.768 167.633 145.2 167.356C144.632 167.079 144.242 166.711 144.026 166.241C143.785 165.732 143.804 165.198 144.074 164.645Z"
                    fill="white" />
                <path
                    d="M146.859 159.23C147.157 158.691 147.579 158.358 148.135 158.245C148.662 158.134 149.196 158.228 149.742 158.53C150.281 158.828 150.643 159.23 150.827 159.725C151.023 160.263 150.972 160.802 150.674 161.341C150.372 161.887 149.947 162.209 149.39 162.322C148.87 162.437 148.337 162.343 147.798 162.045C147.252 161.743 146.889 161.341 146.702 160.835C146.502 160.304 146.557 159.776 146.859 159.23ZM147.328 159.49C147.115 159.875 147.095 160.257 147.273 160.63C147.431 160.973 147.709 161.246 148.115 161.471C148.514 161.691 148.894 161.782 149.268 161.733C149.678 161.686 149.992 161.466 150.205 161.081C150.414 160.703 150.433 160.321 150.263 159.934C150.102 159.598 149.82 159.314 149.428 159.097C149.022 158.873 148.639 158.789 148.268 158.831C147.85 158.892 147.537 159.112 147.328 159.49Z"
                    fill="white" />
                <path
                    d="M149.901 153.999C150.245 153.469 150.695 153.246 151.264 153.338C151.123 153.056 151.059 152.786 151.081 152.533C151.082 152.296 151.159 152.059 151.315 151.818C151.55 151.455 151.852 151.241 152.228 151.16C152.602 151.098 152.992 151.188 153.388 151.445L155.663 152.92L155.315 153.457L153.127 152.039C152.818 151.838 152.546 151.758 152.316 151.789C152.068 151.819 151.855 151.986 151.663 152.281C151.515 152.51 151.469 152.757 151.548 153.017C151.618 153.292 151.792 153.509 152.074 153.692L154.249 155.102L153.901 155.639L151.712 154.22C151.095 153.82 150.619 153.893 150.275 154.423C150.114 154.671 150.077 154.934 150.174 155.225C150.258 155.508 150.44 155.741 150.716 155.919L152.83 157.29L152.482 157.827L149.012 155.577L149.36 155.04L149.823 155.341C149.617 154.835 149.649 154.389 149.901 153.999Z"
                    fill="white" />
                <path
                    d="M154.974 146.58C155.373 146.049 155.855 145.781 156.415 145.781C156.918 145.779 157.468 145.992 158.053 146.412L156.091 149.021C156.481 149.274 156.841 149.395 157.18 149.369C157.52 149.344 157.809 149.172 158.045 148.858C158.247 148.59 158.345 148.313 158.336 148.046C158.326 147.819 158.235 147.58 158.068 147.324L158.452 146.812C158.714 147.13 158.86 147.469 158.896 147.847C158.932 148.304 158.796 148.752 158.473 149.18C158.118 149.654 157.669 149.917 157.151 149.968C156.61 150.021 156.082 149.845 155.545 149.441C155.059 149.076 154.751 148.634 154.636 148.107C154.503 147.566 154.614 147.059 154.974 146.58ZM155.412 146.889C155.191 147.183 155.109 147.492 155.166 147.815C155.224 148.138 155.402 148.433 155.704 148.71L157.257 146.645C156.499 146.175 155.883 146.262 155.412 146.889Z"
                    fill="white" />
                <path
                    d="M158.562 142C159.222 141.217 159.906 141.061 160.64 141.532L160.238 142.009C160.006 141.887 159.792 141.843 159.604 141.894C159.392 141.946 159.179 142.101 158.967 142.352C158.782 142.572 158.675 142.774 158.657 142.969C158.624 143.17 158.677 143.33 158.818 143.449C158.953 143.562 159.141 143.574 159.387 143.468C159.54 143.398 159.793 143.234 160.146 142.988C160.558 142.686 160.882 142.499 161.125 142.421C161.496 142.304 161.818 142.355 162.094 142.587C162.742 143.133 162.697 143.858 161.945 144.752C161.245 145.585 160.496 145.729 159.706 145.189L160.108 144.712C160.39 144.886 160.644 144.944 160.868 144.902C161.079 144.849 161.298 144.689 161.525 144.419C161.999 143.856 162.057 143.414 161.702 143.115C161.524 142.966 161.302 142.956 161.039 143.07C160.903 143.133 160.645 143.303 160.271 143.573C159.865 143.87 159.552 144.056 159.33 144.12C158.977 144.241 158.677 144.188 158.408 143.961C158.138 143.735 158.028 143.443 158.07 143.071C158.096 142.716 158.264 142.355 158.562 142Z"
                    fill="white" />
                <path
                    d="M164.075 135.89L164.58 135.4L167.642 137.1L165.999 134.025L166.43 133.607L169.452 135.347L167.849 132.232L168.355 131.743L170.222 135.693L169.785 136.116L166.78 134.394L168.395 137.463L167.964 137.88L164.075 135.89Z"
                    fill="white" />
                <path
                    d="M169.617 128.51C169.719 128.421 169.83 128.378 169.966 128.387C170.091 128.385 170.2 128.438 170.295 128.547C170.384 128.649 170.421 128.765 170.412 128.901C170.397 129.03 170.344 129.14 170.241 129.229C170.138 129.318 170.022 129.355 169.892 129.352C169.757 129.342 169.653 129.284 169.564 129.181C169.469 129.073 169.426 128.962 169.446 128.838C169.456 128.703 169.514 128.599 169.617 128.51ZM170.398 129.898L170.881 129.478L173.593 132.601L173.11 133.02L170.398 129.898Z"
                    fill="white" />
                <path
                    d="M173.296 125.688L174.131 126.731L174.93 126.091L175.265 126.51L174.466 127.15L176.111 129.204C176.206 129.323 176.294 129.395 176.384 129.405C176.468 129.42 176.574 129.387 176.687 129.297L177.099 128.967L177.434 129.385L176.947 129.775C176.685 129.985 176.436 130.071 176.214 130.024C176.007 129.984 175.812 129.843 175.617 129.599L173.972 127.545L173.323 128.065L172.988 127.646L173.637 127.126L172.967 126.29L173.296 125.688Z"
                    fill="white" />
                <path
                    d="M176.259 122.894L176.779 122.52L178.162 124.441C178.125 124.143 178.164 123.869 178.279 123.618C178.386 123.383 178.55 123.186 178.777 123.023C179.167 122.742 179.551 122.633 179.927 122.717C180.299 122.795 180.641 123.051 180.95 123.479L182.474 125.596L181.954 125.97L180.486 123.931C180.262 123.62 180.011 123.436 179.747 123.37C179.469 123.313 179.194 123.383 178.915 123.584C178.656 123.771 178.516 124.029 178.497 124.358C178.471 124.692 178.578 125.019 178.803 125.331L180.182 127.246L179.663 127.62L176.259 122.894Z"
                    fill="white" />
                <path
                    d="M187.104 117.509C187.653 117.196 188.155 117.205 188.618 117.549C188.623 117.233 188.69 116.965 188.826 116.749C188.936 116.539 189.113 116.365 189.363 116.222C189.739 116.009 190.105 115.956 190.476 116.058C190.837 116.175 191.141 116.434 191.375 116.844L192.717 119.201L192.161 119.518L190.87 117.251C190.688 116.932 190.484 116.735 190.265 116.657C190.031 116.57 189.765 116.62 189.459 116.794C189.222 116.929 189.068 117.127 189.018 117.395C188.954 117.67 189.009 117.943 189.175 118.235L190.458 120.488L189.902 120.804L188.611 118.538C188.247 117.899 187.79 117.744 187.241 118.057C186.984 118.204 186.831 118.42 186.783 118.723C186.727 119.013 186.782 119.304 186.944 119.589L188.192 121.778L187.636 122.095L185.589 118.501L186.145 118.185L186.418 118.664C186.467 118.121 186.701 117.739 187.104 117.509Z"
                    fill="white" />
                <path
                    d="M193.252 112.503C193.374 112.443 193.492 112.429 193.621 112.473C193.742 112.502 193.835 112.581 193.898 112.71C193.959 112.832 193.965 112.954 193.922 113.083C193.875 113.204 193.795 113.297 193.673 113.357C193.551 113.417 193.43 113.424 193.305 113.387C193.176 113.344 193.091 113.261 193.03 113.139C192.967 113.01 192.953 112.892 193.004 112.777C193.047 112.649 193.13 112.563 193.252 112.503ZM193.656 114.044L194.23 113.76L196.061 117.469L195.487 117.752L193.656 114.044Z"
                    fill="white" />
                <path
                    d="M198.729 111.514C199.667 111.102 200.371 111.413 200.828 112.453L201.852 114.782L201.266 115.039L200.262 112.754C199.936 112.014 199.439 111.796 198.779 112.086C198.516 112.202 198.331 112.397 198.224 112.671C198.109 112.966 198.118 113.285 198.247 113.639L199.252 115.924L198.666 116.182L197.002 112.395L197.588 112.138L197.832 112.694C197.871 112.424 197.968 112.189 198.125 111.989C198.279 111.782 198.48 111.623 198.729 111.514Z"
                    fill="white" />
                <path
                    d="M202.618 108.316C202.745 108.268 202.863 108.265 202.987 108.32C203.106 108.361 203.191 108.448 203.242 108.583C203.291 108.71 203.286 108.832 203.23 108.956C203.172 109.072 203.085 109.157 202.958 109.205C202.831 109.254 202.709 109.249 202.588 109.201C202.464 109.146 202.387 109.056 202.338 108.929C202.286 108.794 202.284 108.675 202.345 108.566C202.4 108.442 202.491 108.365 202.618 108.316ZM202.876 109.888L203.474 109.659L204.952 113.522L204.354 113.751L202.876 109.888Z"
                    fill="white" />
                <path
                    d="M208.133 107.829C208.736 107.639 209.225 107.754 209.605 108.188C209.676 107.88 209.799 107.632 209.977 107.45C210.129 107.268 210.339 107.134 210.613 107.048C211.025 106.918 211.394 106.944 211.735 107.122C212.064 107.312 212.306 107.63 212.448 108.08L213.263 110.667L212.653 110.859L211.869 108.372C211.759 108.021 211.6 107.785 211.403 107.663C211.192 107.528 210.922 107.521 210.586 107.627C210.327 107.709 210.134 107.87 210.029 108.121C209.908 108.377 209.904 108.655 210.005 108.976L210.784 111.448L210.173 111.64L209.389 109.153C209.168 108.451 208.755 108.204 208.152 108.394C207.87 108.483 207.674 108.662 207.563 108.948C207.448 109.22 207.44 109.516 207.539 109.828L208.296 112.232L207.686 112.424L206.443 108.48L207.053 108.287L207.219 108.814C207.382 108.293 207.691 107.969 208.133 107.829Z"
                    fill="white" />
                <path
                    d="M216.715 105.346C217.291 105.207 217.746 105.254 218.099 105.489C218.397 105.697 218.609 106.033 218.722 106.499L219.346 109.081L218.762 109.222L218.599 108.545C218.496 108.801 218.329 109.03 218.114 109.23C217.858 109.465 217.545 109.631 217.171 109.722C216.767 109.819 216.424 109.795 216.134 109.651C215.834 109.501 215.644 109.259 215.565 108.933C215.454 108.474 215.55 108.089 215.867 107.765C216.141 107.468 216.58 107.239 217.184 107.085L218.145 106.836L218.094 106.626C217.931 105.95 217.5 105.7 216.8 105.869C216.505 105.94 216.277 106.053 216.12 106.223C215.94 106.398 215.855 106.624 215.855 106.896L215.229 106.997C215.213 106.557 215.346 106.187 215.624 105.906C215.875 105.648 216.233 105.463 216.715 105.346ZM218.258 107.303L217.336 107.542C216.438 107.775 216.058 108.18 216.199 108.763C216.244 108.95 216.35 109.081 216.535 109.167C216.719 109.247 216.936 109.26 217.185 109.2C217.566 109.108 217.87 108.903 218.106 108.582C218.335 108.272 218.415 107.956 218.34 107.645L218.258 107.303Z"
                    fill="white" />
                <path
                    d="M220.934 102.775L221.555 102.657L222.64 108.379L222.019 108.497L220.934 102.775Z"
                    fill="white" />
                <path
                    d="M225.145 102.141C225.279 102.12 225.396 102.143 225.506 102.223C225.613 102.287 225.677 102.391 225.699 102.533C225.72 102.668 225.69 102.786 225.609 102.895C225.528 102.997 225.424 103.061 225.29 103.082C225.156 103.103 225.038 103.072 224.929 103C224.82 102.92 224.763 102.815 224.743 102.681C224.721 102.538 224.743 102.421 224.826 102.328C224.906 102.218 225.011 102.162 225.145 102.141ZM225.066 103.732L225.699 103.634L226.329 107.722L225.696 107.819L225.066 103.732Z"
                    fill="white" />
                <path
                    d="M230.276 102.887C231.294 102.778 231.896 103.14 232.099 103.987L231.479 104.054C231.396 103.805 231.272 103.625 231.101 103.531C230.912 103.422 230.651 103.386 230.325 103.421C230.039 103.452 229.821 103.523 229.674 103.652C229.51 103.774 229.438 103.926 229.457 104.109C229.476 104.284 229.604 104.423 229.855 104.517C230.014 104.573 230.31 104.629 230.735 104.696C231.241 104.763 231.605 104.853 231.834 104.965C232.182 105.137 232.379 105.397 232.418 105.755C232.508 106.598 231.973 107.09 230.812 107.215C229.73 107.331 229.09 106.916 228.893 105.98L229.514 105.914C229.597 106.235 229.741 106.452 229.931 106.577C230.12 106.685 230.389 106.721 230.739 106.683C231.471 106.605 231.819 106.326 231.77 105.865C231.745 105.634 231.591 105.474 231.323 105.374C231.181 105.325 230.877 105.269 230.42 105.205C229.922 105.138 229.567 105.055 229.362 104.948C229.024 104.791 228.844 104.545 228.807 104.195C228.769 103.845 228.891 103.558 229.18 103.318C229.444 103.081 229.814 102.937 230.276 102.887Z"
                    fill="white" />
                <path
                    d="M235.81 101.159L235.885 102.493L236.908 102.435L236.938 102.97L235.916 103.028L236.064 105.656C236.073 105.808 236.103 105.918 236.171 105.979C236.23 106.039 236.336 106.073 236.48 106.065L237.007 106.035L237.037 106.571L236.414 106.606C236.079 106.625 235.826 106.551 235.673 106.383C235.528 106.231 235.451 106.003 235.433 105.692L235.285 103.064L234.454 103.111L234.424 102.576L235.254 102.529L235.194 101.459L235.81 101.159Z"
                    fill="white" />
                <path
                    d="M247.639 100.676L248.279 100.699L248.067 106.519L247.467 106.498L247.492 105.818C247.185 106.335 246.712 106.582 246.088 106.559C245.48 106.537 245.017 106.296 244.697 105.852C244.4 105.441 244.266 104.924 244.289 104.3C244.311 103.693 244.481 103.203 244.808 102.814C245.16 102.379 245.623 102.18 246.215 102.201C246.806 102.223 247.252 102.527 247.55 103.122L247.639 100.676ZM246.332 102.734C245.876 102.717 245.526 102.864 245.291 103.176C245.073 103.448 244.963 103.829 244.945 104.324C244.927 104.82 245.008 105.215 245.198 105.51C245.41 105.838 245.739 106.018 246.187 106.035C246.603 106.05 246.928 105.902 247.172 105.59C247.382 105.31 247.5 104.938 247.517 104.474L247.52 104.394C247.537 103.914 247.432 103.518 247.219 103.214C246.998 102.902 246.699 102.747 246.332 102.734Z"
                    fill="white" />
                <path
                    d="M252.228 102.539C252.89 102.599 253.371 102.868 253.665 103.345C253.932 103.771 254.04 104.351 253.99 105.069L250.74 104.773C250.73 105.238 250.817 105.608 251.016 105.883C251.216 106.158 251.515 106.314 251.906 106.35C252.24 106.38 252.527 106.318 252.75 106.169C252.938 106.042 253.093 105.839 253.223 105.562L253.86 105.62C253.728 106.009 253.516 106.311 253.214 106.541C252.844 106.812 252.391 106.932 251.857 106.883C251.268 106.83 250.808 106.587 250.492 106.173C250.162 105.741 250.034 105.199 250.095 104.53C250.15 103.925 250.364 103.43 250.752 103.055C251.141 102.657 251.631 102.485 252.228 102.539ZM252.196 103.074C251.829 103.041 251.524 103.134 251.279 103.352C251.034 103.571 250.878 103.878 250.801 104.281L253.374 104.515C253.375 103.623 252.977 103.145 252.196 103.074Z"
                    fill="white" />
                <path
                    d="M257.883 103.156C258.896 103.304 259.389 103.805 259.375 104.676L258.758 104.586C258.74 104.324 258.664 104.119 258.522 103.985C258.367 103.833 258.122 103.733 257.798 103.686C257.513 103.644 257.284 103.659 257.11 103.747C256.921 103.824 256.813 103.954 256.786 104.136C256.761 104.31 256.85 104.477 257.07 104.63C257.21 104.724 257.482 104.852 257.878 105.023C258.351 105.214 258.681 105.391 258.875 105.557C259.17 105.81 259.295 106.111 259.243 106.467C259.121 107.307 258.481 107.65 257.325 107.481C256.248 107.324 255.732 106.764 255.774 105.808L256.392 105.898C256.392 106.229 256.477 106.476 256.631 106.644C256.786 106.796 257.038 106.898 257.387 106.948C258.115 107.055 258.522 106.872 258.589 106.412C258.622 106.183 258.513 105.989 258.278 105.825C258.153 105.742 257.872 105.613 257.445 105.437C256.98 105.248 256.657 105.08 256.485 104.925C256.196 104.689 256.084 104.406 256.135 104.057C256.186 103.709 256.375 103.462 256.714 103.301C257.029 103.137 257.424 103.089 257.883 103.156Z"
                    fill="white" />
                <path
                    d="M263.199 102.541C263.333 102.567 263.435 102.627 263.511 102.74C263.59 102.836 263.616 102.955 263.589 103.097C263.563 103.23 263.494 103.331 263.382 103.407C263.271 103.475 263.152 103.501 263.018 103.475C262.885 103.449 262.784 103.381 262.706 103.276C262.63 103.164 262.612 103.046 262.638 102.913C262.666 102.772 262.726 102.669 262.836 102.609C262.948 102.533 263.066 102.515 263.199 102.541ZM262.589 104.011L263.217 104.133L262.431 108.194L261.803 108.072L262.589 104.011Z"
                    fill="white" />
                <path
                    d="M268.375 105.106C268.981 105.257 269.365 105.633 269.526 106.243L269.699 105.552L270.32 105.707L269.387 109.44C269.067 110.721 268.292 111.212 267.074 110.907C266.531 110.772 266.139 110.558 265.914 110.271C265.681 109.982 265.584 109.611 265.622 109.159L266.243 109.314C266.222 109.598 266.288 109.829 266.435 109.997C266.581 110.174 266.835 110.312 267.2 110.403C268.007 110.605 268.523 110.255 268.744 109.37L268.921 108.664C268.492 109.126 267.974 109.285 267.369 109.134C266.81 108.994 266.416 108.69 266.185 108.228C265.952 107.774 265.915 107.262 266.061 106.68C266.208 106.09 266.482 105.655 266.901 105.364C267.326 105.05 267.817 104.966 268.375 105.106ZM268.34 105.641C267.937 105.54 267.591 105.603 267.293 105.841C267.009 106.051 266.81 106.388 266.697 106.839C266.592 107.258 266.598 107.63 266.726 107.943C266.87 108.292 267.149 108.527 267.584 108.635C267.988 108.736 268.333 108.674 268.636 108.453C268.921 108.235 269.119 107.906 269.227 107.471C269.34 107.021 269.322 106.629 269.171 106.311C269.012 105.957 268.736 105.74 268.34 105.641Z"
                    fill="white" />
                <path
                    d="M274.991 106.903C275.968 107.208 276.296 107.905 275.958 108.989L275.201 111.418L274.59 111.228L275.332 108.845C275.573 108.073 275.341 107.582 274.653 107.368C274.378 107.282 274.111 107.307 273.85 107.444C273.57 107.591 273.367 107.838 273.232 108.19L272.489 110.573L271.878 110.382L273.109 106.434L273.72 106.624L273.539 107.205C273.746 107.026 273.974 106.913 274.223 106.865C274.475 106.809 274.731 106.822 274.991 106.903Z"
                    fill="white" />
                <path
                    d="M284.496 108.968L283.984 110.202L284.93 110.594L284.725 111.089L283.779 110.697L282.771 113.129C282.713 113.269 282.692 113.382 282.726 113.465C282.754 113.546 282.834 113.623 282.967 113.678L283.455 113.88L283.25 114.375L282.673 114.136C282.363 114.007 282.168 113.831 282.102 113.613C282.038 113.414 282.067 113.175 282.187 112.887L283.195 110.455L282.426 110.137L282.632 109.641L283.4 109.96L283.811 108.97L284.496 108.968Z"
                    fill="white" />
                <path
                    d="M288.023 110.052L288.602 110.326L287.589 112.466C287.832 112.289 288.091 112.191 288.367 112.17C288.624 112.15 288.875 112.199 289.128 112.318C289.562 112.524 289.844 112.807 289.952 113.177C290.064 113.54 290.005 113.963 289.779 114.44L288.664 116.798L288.086 116.524L289.16 114.254C289.324 113.906 289.364 113.598 289.294 113.335C289.209 113.064 289.015 112.858 288.704 112.71C288.415 112.574 288.121 112.576 287.824 112.719C287.519 112.858 287.285 113.11 287.121 113.457L286.111 115.59L285.533 115.317L288.023 110.052Z"
                    fill="white" />
                <path
                    d="M294.565 115.037C294.762 115.143 294.916 115.262 295.02 115.39L294.716 115.954C294.563 115.799 294.392 115.679 294.215 115.584C293.934 115.433 293.63 115.423 293.303 115.574C292.977 115.708 292.73 115.947 292.548 116.285L291.508 118.215L290.952 117.915L292.913 114.274L293.47 114.574L293.128 115.208C293.34 115.049 293.558 114.949 293.778 114.912C294.051 114.86 294.311 114.9 294.565 115.037Z"
                    fill="white" />
                <path
                    d="M299.131 117.621C299.657 117.94 299.973 118.376 300.063 118.936C300.152 119.468 300.036 119.997 299.712 120.53C299.393 121.056 298.976 121.402 298.475 121.566C297.929 121.74 297.393 121.667 296.866 121.347C296.333 121.023 296.028 120.585 295.938 120.024C295.845 119.5 295.96 118.971 296.28 118.444C296.604 117.911 297.021 117.565 297.533 117.399C298.072 117.221 298.597 117.297 299.131 117.621ZM298.852 118.079C298.476 117.85 298.095 117.815 297.715 117.978C297.366 118.121 297.082 118.388 296.841 118.785C296.604 119.175 296.498 119.55 296.531 119.926C296.562 120.338 296.769 120.66 297.145 120.889C297.514 121.113 297.895 121.148 298.288 120.994C298.631 120.846 298.926 120.576 299.159 120.193C299.4 119.797 299.499 119.417 299.472 119.045C299.428 118.625 299.221 118.303 298.852 118.079Z"
                    fill="white" />
                <path
                    d="M302.647 119.916L303.175 120.278L301.745 122.363C301.523 122.686 301.421 122.976 301.451 123.229C301.481 123.482 301.647 123.722 301.957 123.935C302.181 124.088 302.449 124.136 302.745 124.087C303.056 124.029 303.331 123.869 303.57 123.605L304.995 121.528L305.523 121.89L303.183 125.3L302.656 124.938L303.018 124.41C302.46 124.629 301.946 124.587 301.484 124.27C300.653 123.7 300.565 122.951 301.199 122.027L302.647 119.916Z"
                    fill="white" />
                <path
                    d="M308.898 124.194C309.391 124.577 309.59 125.076 309.492 125.699L309.929 125.136L310.434 125.529L308.075 128.569C307.266 129.611 306.359 129.749 305.367 128.978C304.925 128.635 304.652 128.282 304.562 127.928C304.465 127.57 304.526 127.192 304.744 126.794L305.249 127.186C305.116 127.437 305.083 127.674 305.15 127.888C305.212 128.109 305.389 128.337 305.686 128.568C306.343 129.078 306.956 128.966 307.515 128.246L307.962 127.671C307.383 127.92 306.845 127.857 306.352 127.475C305.897 127.121 305.659 126.684 305.634 126.168C305.604 125.659 305.777 125.175 306.145 124.701C306.518 124.221 306.943 123.933 307.444 123.836C307.96 123.72 308.443 123.841 308.898 124.194ZM308.65 124.67C308.321 124.415 307.98 124.333 307.61 124.431C307.267 124.508 306.948 124.737 306.663 125.103C306.398 125.445 306.253 125.788 306.245 126.125C306.235 126.503 306.396 126.83 306.75 127.105C307.079 127.36 307.42 127.443 307.786 127.362C308.135 127.278 308.449 127.056 308.723 126.702C309.008 126.336 309.15 125.97 309.14 125.618C309.137 125.231 308.972 124.921 308.65 124.67Z"
                    fill="white" />
                <path
                    d="M314.483 126.609L314.963 127.032L313.398 128.809C313.681 128.706 313.957 128.683 314.227 128.739C314.48 128.791 314.708 128.907 314.918 129.092C315.279 129.41 315.471 129.76 315.473 130.146C315.48 130.525 315.306 130.916 314.957 131.312L313.233 133.269L312.753 132.846L314.413 130.961C314.667 130.673 314.791 130.387 314.796 130.115C314.789 129.832 314.66 129.579 314.402 129.352C314.162 129.14 313.879 129.062 313.554 129.117C313.223 129.166 312.928 129.343 312.674 129.632L311.114 131.403L310.634 130.98L314.483 126.609Z"
                    fill="white" />
                <path
                    d="M319.252 133.079C319.691 133.511 319.899 134.007 319.859 134.573C319.824 135.111 319.591 135.599 319.153 136.044C318.721 136.484 318.237 136.725 317.711 136.77C317.14 136.814 316.635 136.621 316.196 136.189C315.751 135.752 315.554 135.255 315.594 134.689C315.624 134.157 315.857 133.669 316.289 133.229C316.726 132.784 317.211 132.543 317.748 132.498C318.313 132.448 318.807 132.642 319.252 133.079ZM318.876 133.461C318.562 133.153 318.199 133.032 317.792 133.103C317.42 133.163 317.082 133.358 316.757 133.689C316.437 134.014 316.248 134.356 316.194 134.729C316.13 135.137 316.258 135.498 316.572 135.807C316.88 136.109 317.243 136.231 317.661 136.17C318.028 136.105 318.377 135.91 318.691 135.59C319.016 135.259 319.2 134.912 319.259 134.544C319.312 134.125 319.184 133.764 318.876 133.461Z"
                    fill="white" />
                <path
                    d="M322.117 136.085L322.548 136.558L320.681 138.262C320.391 138.526 320.226 138.785 320.198 139.038C320.169 139.292 320.276 139.563 320.529 139.84C320.713 140.041 320.962 140.149 321.262 140.169C321.578 140.183 321.883 140.089 322.175 139.888L324.036 138.189L324.468 138.662L321.413 141.45L320.981 140.977L321.454 140.545C320.861 140.631 320.37 140.473 319.993 140.059C319.313 139.315 319.398 138.566 320.226 137.811L322.117 136.085Z"
                    fill="white" />
                <path
                    d="M327.981 140.676L326.949 141.525L327.6 142.316L327.186 142.656L326.536 141.866L324.504 143.539C324.386 143.635 324.315 143.725 324.306 143.815C324.293 143.899 324.328 144.005 324.419 144.116L324.755 144.524L324.341 144.864L323.944 144.382C323.731 144.123 323.641 143.876 323.686 143.653C323.723 143.446 323.861 143.249 324.102 143.051L326.134 141.378L325.605 140.736L326.019 140.395L326.548 141.037L327.375 140.356L327.981 140.676Z"
                    fill="white" />
                <path
                    d="M331.498 147.219L331.892 147.802L329.683 150.521L332.998 149.44L333.334 149.937L331.094 152.609L334.44 151.574L334.835 152.158L330.619 153.306L330.279 152.802L332.499 150.144L329.195 151.198L328.859 150.701L331.498 147.219Z"
                    fill="white" />
                <path
                    d="M337.798 153.949C337.868 154.066 337.891 154.182 337.858 154.314C337.839 154.437 337.767 154.536 337.644 154.61C337.527 154.68 337.406 154.696 337.275 154.663C337.15 154.626 337.051 154.555 336.981 154.438C336.911 154.321 336.895 154.2 336.921 154.073C336.954 153.941 337.03 153.849 337.147 153.779C337.27 153.706 337.387 153.682 337.505 153.724C337.636 153.757 337.728 153.832 337.798 153.949ZM336.295 154.475L336.624 155.025L333.075 157.149L332.746 156.6L336.295 154.475Z"
                    fill="white" />
                <path
                    d="M339.872 157.937L338.699 158.576L339.189 159.476L338.719 159.732L338.229 158.833L335.917 160.092C335.784 160.165 335.697 160.24 335.672 160.327C335.642 160.407 335.657 160.517 335.726 160.643L335.978 161.107L335.508 161.364L335.209 160.816C335.048 160.521 335.007 160.261 335.093 160.05C335.168 159.854 335.341 159.687 335.615 159.538L337.926 158.278L337.528 157.547L337.999 157.291L338.397 158.022L339.338 157.509L339.872 157.937Z"
                    fill="white" />
                <path
                    d="M342.206 161.509L342.483 162.086L340.348 163.111C340.648 163.126 340.912 163.213 341.138 163.37C341.35 163.517 341.515 163.713 341.637 163.965C341.844 164.398 341.884 164.796 341.735 165.151C341.594 165.503 341.281 165.795 340.805 166.024L338.454 167.152L338.177 166.575L340.442 165.488C340.788 165.322 341.013 165.107 341.125 164.859C341.229 164.596 341.209 164.313 341.06 164.002C340.921 163.714 340.692 163.531 340.371 163.455C340.047 163.371 339.706 163.419 339.36 163.585L337.232 164.606L336.955 164.029L342.206 161.509Z"
                    fill="white" />
                <path
                    d="M346.382 171.125C346.43 171.252 346.433 171.371 346.378 171.495C346.337 171.613 346.25 171.698 346.116 171.749C345.989 171.798 345.867 171.793 345.743 171.738C345.626 171.68 345.541 171.592 345.493 171.465C345.444 171.338 345.449 171.217 345.497 171.095C345.552 170.971 345.642 170.894 345.769 170.845C345.904 170.794 346.023 170.791 346.132 170.852C346.256 170.907 346.333 170.998 346.382 171.125ZM344.81 171.384L345.039 171.982L341.177 173.462L340.948 172.864L344.81 171.384Z"
                    fill="white" />
                <path
                    d="M347.075 177.263C347.395 178.236 347.017 178.907 345.938 179.262L343.521 180.056L343.322 179.448L345.693 178.669C346.46 178.417 346.726 177.942 346.501 177.258C346.411 176.985 346.235 176.781 345.972 176.649C345.69 176.506 345.371 176.484 345.006 176.579L342.635 177.358L342.435 176.75L346.365 175.459L346.564 176.067L345.987 176.257C346.252 176.321 346.477 176.441 346.661 176.616C346.852 176.789 346.99 177.005 347.075 177.263Z"
                    fill="white" />
                <path
                    d="M349.689 181.545L348.401 181.9L348.672 182.887L348.156 183.029L347.884 182.042L345.346 182.74C345.2 182.781 345.098 182.834 345.053 182.912C345.007 182.983 344.996 183.094 345.034 183.233L345.174 183.742L344.657 183.884L344.492 183.283C344.402 182.959 344.421 182.696 344.553 182.511C344.671 182.337 344.878 182.214 345.179 182.131L347.716 181.433L347.495 180.63L348.012 180.488L348.233 181.29L349.267 181.006L349.689 181.545Z"
                    fill="white" />
                <path
                    d="M349.552 186.162L349.689 186.787L347.22 187.328C346.837 187.412 346.565 187.554 346.413 187.759C346.262 187.964 346.218 188.252 346.299 188.619C346.357 188.885 346.519 189.103 346.769 189.27C347.036 189.441 347.346 189.512 347.7 189.483L350.162 188.944L350.299 189.569L346.259 190.455L346.122 189.829L346.747 189.692C346.19 189.47 345.844 189.088 345.725 188.541C345.509 187.556 345.957 186.95 347.051 186.71L349.552 186.162Z"
                    fill="white" />
                <path
                    d="M352.41 192.238C352.434 192.372 352.413 192.489 352.335 192.6C352.272 192.708 352.17 192.774 352.028 192.798C351.894 192.822 351.775 192.793 351.665 192.715C351.562 192.635 351.495 192.533 351.472 192.399C351.449 192.265 351.478 192.146 351.548 192.037C351.626 191.926 351.73 191.868 351.864 191.844C352.006 191.82 352.123 191.841 352.218 191.922C352.329 192 352.387 192.104 352.41 192.238ZM350.819 192.187L350.927 192.817L346.851 193.518L346.743 192.887L350.819 192.187Z"
                    fill="white" />
                <path
                    d="M352.833 196.195L351.508 196.372L351.643 197.387L351.112 197.457L350.977 196.442L348.368 196.789C348.217 196.809 348.109 196.848 348.054 196.92C347.998 196.984 347.972 197.092 347.991 197.235L348.061 197.758L347.53 197.829L347.447 197.21C347.403 196.877 347.458 196.62 347.613 196.454C347.754 196.298 347.975 196.204 348.284 196.163L350.894 195.816L350.784 194.991L351.315 194.92L351.425 195.745L352.488 195.604L352.833 196.195Z"
                    fill="white" />
                <path
                    d="M353.633 200.853C353.645 200.988 353.615 201.103 353.528 201.208C353.457 201.31 353.35 201.368 353.206 201.381C353.071 201.393 352.955 201.356 352.851 201.269C352.755 201.181 352.697 201.074 352.684 200.938C352.672 200.803 352.71 200.687 352.789 200.584C352.876 200.479 352.984 200.429 353.119 200.417C353.263 200.404 353.378 200.434 353.466 200.522C353.57 200.609 353.62 200.717 353.633 200.853ZM352.05 200.674L352.108 201.312L347.988 201.684L347.931 201.047L352.05 200.674Z"
                    fill="white" />
                <path
                    d="M352.394 204.15L352.426 204.853L349.145 206.183L352.53 207.219L352.561 207.922L348.36 206.539L348.331 205.891L352.394 204.15Z"
                    fill="white" />
                <path
                    d="M352.764 212.274C352.757 212.938 352.529 213.44 352.077 213.772C351.674 214.072 351.105 214.226 350.385 214.235L350.416 210.972C349.952 210.999 349.591 211.116 349.332 211.337C349.074 211.559 348.943 211.87 348.94 212.262C348.936 212.598 349.022 212.878 349.188 213.088C349.33 213.265 349.545 213.403 349.832 213.51L349.826 214.15C349.427 214.05 349.108 213.863 348.855 213.581C348.554 213.234 348.398 212.793 348.404 212.257C348.409 211.665 348.614 211.186 349.001 210.838C349.405 210.474 349.934 210.303 350.606 210.309C351.214 210.315 351.725 210.488 352.129 210.844C352.558 211.2 352.769 211.674 352.764 212.274ZM352.227 212.285C352.231 211.917 352.114 211.62 351.876 211.394C351.638 211.167 351.319 211.036 350.912 210.992L350.887 213.576C351.776 213.505 352.22 213.069 352.227 212.285Z"
                    fill="white" />
                <path
                    d="M352.292 221.594L352.225 222.23L349.711 221.964C349.321 221.923 349.018 221.971 348.809 222.118C348.601 222.265 348.469 222.524 348.429 222.898C348.4 223.169 348.486 223.427 348.67 223.664C348.869 223.91 349.141 224.076 349.486 224.161L351.992 224.426L351.925 225.062L347.812 224.627L347.879 223.99L348.515 224.058C348.058 223.671 347.85 223.199 347.909 222.642C348.015 221.64 348.632 221.206 349.746 221.324L352.292 221.594Z"
                    fill="white" />
                <path
                    d="M351.537 228.874C351.375 229.885 350.868 230.371 349.997 230.345L350.096 229.728C350.357 229.714 350.563 229.641 350.699 229.501C350.853 229.348 350.957 229.105 351.009 228.781C351.055 228.497 351.043 228.268 350.958 228.092C350.883 227.902 350.755 227.792 350.573 227.763C350.399 227.735 350.231 227.822 350.075 228.04C349.98 228.178 349.847 228.449 349.671 228.842C349.474 229.313 349.291 229.64 349.123 229.832C348.866 230.122 348.562 230.244 348.207 230.187C347.37 230.052 347.036 229.407 347.221 228.254C347.393 227.18 347.961 226.671 348.916 226.728L348.817 227.344C348.486 227.339 348.238 227.421 348.068 227.572C347.913 227.725 347.808 227.976 347.753 228.323C347.636 229.05 347.813 229.459 348.272 229.533C348.501 229.57 348.696 229.463 348.863 229.231C348.948 229.107 349.081 228.828 349.263 228.404C349.459 227.941 349.632 227.62 349.789 227.451C350.029 227.165 350.314 227.057 350.661 227.113C351.009 227.169 351.253 227.362 351.409 227.703C351.569 228.02 351.611 228.416 351.537 228.874Z"
                    fill="white" />
                <path
                    d="M350.493 234.768C350.353 235.417 350.027 235.862 349.518 236.096C349.063 236.309 348.474 236.345 347.767 236.209L348.456 233.019C347.996 232.952 347.618 232.993 347.321 233.158C347.023 233.323 346.832 233.601 346.75 233.984C346.679 234.313 346.706 234.605 346.826 234.844C346.93 235.046 347.112 235.225 347.372 235.387L347.237 236.013C346.866 235.835 346.592 235.587 346.401 235.259C346.176 234.859 346.113 234.395 346.226 233.871C346.351 233.293 346.647 232.866 347.097 232.603C347.566 232.327 348.119 232.267 348.776 232.408C349.37 232.537 349.835 232.809 350.16 233.239C350.508 233.674 350.619 234.181 350.493 234.768ZM349.965 234.67C350.043 234.311 349.988 233.996 349.801 233.726C349.613 233.457 349.328 233.264 348.937 233.139L348.392 235.665C349.277 235.774 349.8 235.437 349.965 234.67Z"
                    fill="white" />
                <path
                    d="M348.928 241.334C348.87 241.551 348.788 241.727 348.687 241.857L348.069 241.689C348.185 241.505 348.263 241.311 348.316 241.118C348.4 240.809 348.34 240.511 348.119 240.227C347.915 239.939 347.626 239.753 347.256 239.652L345.141 239.076L345.307 238.466L349.297 239.553L349.131 240.163L348.437 239.973C348.639 240.145 348.786 240.334 348.871 240.539C348.984 240.794 349.004 241.056 348.928 241.334Z"
                    fill="white" />
                <path
                    d="M348.193 248.72C348.147 248.848 348.072 248.94 347.949 248.998C347.842 249.062 347.72 249.07 347.584 249.022C347.456 248.976 347.367 248.893 347.308 248.771C347.258 248.651 347.25 248.529 347.295 248.401C347.341 248.273 347.424 248.184 347.539 248.123C347.661 248.064 347.78 248.064 347.908 248.11C348.044 248.158 348.136 248.233 348.18 248.35C348.238 248.473 348.238 248.592 348.193 248.72ZM346.83 247.896L346.615 248.499L342.718 247.115L342.932 246.512L346.83 247.896Z"
                    fill="white" />
                <path
                    d="M344.714 253.886C344.325 254.833 343.602 255.098 342.551 254.666L340.198 253.699L340.441 253.107L342.75 254.056C343.497 254.363 344.007 254.175 344.281 253.509C344.39 253.243 344.388 252.974 344.275 252.702C344.153 252.41 343.925 252.187 343.586 252.021L341.278 251.072L341.521 250.48L345.346 252.053L345.103 252.645L344.541 252.414C344.701 252.635 344.793 252.872 344.819 253.125C344.852 253.381 344.817 253.635 344.714 253.886Z"
                    fill="white" />
                <path
                    d="M343.939 258.794L342.73 258.227L342.295 259.154L341.81 258.927L342.245 258L339.862 256.882C339.724 256.818 339.612 256.792 339.527 256.822C339.445 256.846 339.365 256.923 339.304 257.054L339.08 257.532L338.594 257.304L338.859 256.739C339.002 256.435 339.187 256.248 339.408 256.192C339.61 256.137 339.847 256.177 340.13 256.31L342.513 257.427L342.866 256.674L343.351 256.902L342.998 257.655L343.969 258.11L343.939 258.794Z"
                    fill="white" />
                <path
                    d="M340.217 263.613C339.904 264.199 339.469 264.538 338.916 264.623C338.42 264.703 337.843 264.577 337.2 264.252L338.738 261.372C338.313 261.182 337.939 261.118 337.608 261.195C337.277 261.272 337.017 261.487 336.832 261.833C336.674 262.129 336.62 262.418 336.67 262.68C336.714 262.904 336.841 263.125 337.046 263.353L336.744 263.917C336.437 263.644 336.241 263.331 336.147 262.963C336.041 262.517 336.107 262.053 336.359 261.581C336.638 261.058 337.041 260.729 337.545 260.599C338.071 260.463 338.62 260.557 339.213 260.873C339.749 261.16 340.122 261.549 340.316 262.052C340.531 262.566 340.499 263.084 340.217 263.613ZM339.736 263.375C339.91 263.05 339.943 262.732 339.837 262.422C339.731 262.111 339.509 261.847 339.168 261.62L337.951 263.899C338.772 264.247 339.367 264.066 339.736 263.375Z"
                    fill="white" />
                <path
                    d="M337.078 269.202C336.963 269.394 336.836 269.542 336.703 269.639L336.155 269.309C336.317 269.164 336.445 268.998 336.548 268.827C336.713 268.553 336.737 268.249 336.602 267.916C336.484 267.584 336.257 267.325 335.928 267.127L334.05 265.996L334.376 265.455L337.919 267.589L337.593 268.13L336.976 267.759C337.124 267.978 337.214 268.201 337.24 268.422C337.279 268.698 337.227 268.955 337.078 269.202Z"
                    fill="white" />
                <path
                    d="M335.887 273.854L335.448 274.513L334.989 274.208L335.382 273.615C335.48 273.468 335.522 273.333 335.486 273.213C335.457 273.098 335.359 272.985 335.192 272.874L334.813 272.622L334.166 273.595L333.72 273.298L334.366 272.325L331.367 270.334L331.721 269.801L334.72 271.792L335.295 270.926L335.742 271.222L335.167 272.089L335.56 272.35C335.853 272.545 336.024 272.764 336.087 273.017C336.152 273.281 336.081 273.56 335.887 273.854Z"
                    fill="white" />
                <path
                    d="M331.602 277.471C331.25 277.946 330.871 278.203 330.448 278.249C330.087 278.28 329.709 278.159 329.323 277.873L327.188 276.293L327.545 275.811L328.105 276.225C328.02 275.963 328.001 275.68 328.037 275.388C328.083 275.044 328.217 274.715 328.446 274.407C328.693 274.072 328.972 273.871 329.287 273.795C329.613 273.718 329.914 273.782 330.184 273.982C330.563 274.262 330.737 274.62 330.701 275.071C330.681 275.475 330.492 275.932 330.127 276.438L329.549 277.245L329.723 277.373C330.282 277.787 330.773 277.703 331.202 277.124C331.382 276.88 331.485 276.647 331.496 276.417C331.522 276.167 331.442 275.939 331.268 275.73L331.683 275.251C331.978 275.579 332.113 275.947 332.08 276.341C332.053 276.7 331.897 277.072 331.602 277.471ZM329.164 276.959L329.717 276.184C330.257 275.429 330.289 274.875 329.806 274.518C329.652 274.404 329.487 274.371 329.289 274.424C329.097 274.481 328.922 274.61 328.77 274.816C328.537 275.131 328.435 275.483 328.459 275.88C328.483 276.266 328.624 276.559 328.881 276.75L329.164 276.959Z"
                    fill="white" />
                <path
                    d="M327.923 282.237C327.597 282.632 327.244 282.869 326.86 282.956C326.465 283.044 326.053 282.952 325.619 282.686L326.022 282.199C326.304 282.361 326.571 282.415 326.822 282.363C327.078 282.305 327.301 282.148 327.511 281.895C327.766 281.587 327.853 281.244 327.767 280.871C327.682 280.51 327.446 280.169 327.058 279.847C326.67 279.525 326.295 279.35 325.931 279.339C325.571 279.321 325.25 279.471 324.984 279.791C324.535 280.333 324.552 280.877 325.039 281.405L324.63 281.898C324.285 281.487 324.099 281.073 324.094 280.653C324.089 280.244 324.245 279.843 324.572 279.449C324.97 278.969 325.436 278.732 325.976 278.732C326.487 278.73 326.984 278.933 327.47 279.337C327.957 279.74 328.249 280.19 328.348 280.698C328.462 281.25 328.317 281.763 327.923 282.237Z"
                    fill="white" />
                <path
                    d="M324.043 286.739C323.592 287.227 323.086 287.445 322.529 287.387C322.029 287.338 321.503 287.07 320.964 286.593L323.181 284.197C322.818 283.905 322.473 283.749 322.133 283.74C321.792 283.73 321.487 283.872 321.22 284.16C320.992 284.407 320.867 284.672 320.849 284.939C320.835 285.166 320.901 285.412 321.042 285.684L320.607 286.154C320.379 285.812 320.269 285.459 320.271 285.08C320.282 284.621 320.463 284.189 320.827 283.796C321.229 283.361 321.702 283.145 322.223 283.147C322.766 283.149 323.273 283.378 323.767 283.835C324.213 284.248 324.475 284.719 324.535 285.254C324.613 285.806 324.451 286.299 324.043 286.739ZM323.639 286.387C323.889 286.117 324.002 285.818 323.978 285.491C323.954 285.163 323.806 284.852 323.534 284.546L321.779 286.442C322.485 286.987 323.107 286.963 323.639 286.387Z"
                    fill="white" />
                <path
                    d="M318.11 294.454L317.213 293.465L316.454 294.153L316.094 293.756L316.852 293.068L315.084 291.119C314.981 291.007 314.888 290.94 314.798 290.935C314.713 290.926 314.61 290.966 314.503 291.063L314.112 291.418L313.752 291.021L314.214 290.601C314.463 290.375 314.705 290.274 314.93 290.308C315.139 290.335 315.342 290.463 315.552 290.694L317.32 292.643L317.936 292.084L318.297 292.481L317.681 293.04L318.401 293.834L318.11 294.454Z"
                    fill="white" />
                <path
                    d="M315.259 297.496L314.764 297.901L313.264 296.069C313.32 296.364 313.298 296.641 313.198 296.898C313.106 297.139 312.955 297.346 312.738 297.523C312.367 297.827 311.99 297.96 311.609 297.899C311.234 297.845 310.876 297.61 310.542 297.202L308.889 295.184L309.385 294.778L310.976 296.722C311.219 297.019 311.481 297.187 311.749 297.237C312.029 297.276 312.299 297.189 312.566 296.971C312.813 296.769 312.936 296.502 312.935 296.173C312.94 295.838 312.813 295.518 312.57 295.221L311.075 293.395L311.57 292.989L315.259 297.496Z"
                    fill="white" />
                <path
                    d="M308.136 301.132C307.658 301.481 307.219 301.614 306.803 301.532C306.448 301.454 306.123 301.226 305.84 300.838L304.272 298.694L304.756 298.34L305.167 298.902C305.164 298.627 305.23 298.351 305.351 298.083C305.498 297.768 305.723 297.494 306.033 297.268C306.369 297.022 306.695 296.912 307.018 296.934C307.352 296.957 307.621 297.108 307.819 297.379C308.098 297.76 308.157 298.153 307.989 298.573C307.85 298.952 307.533 299.332 307.034 299.707L306.243 300.306L306.37 300.48C306.781 301.042 307.275 301.107 307.856 300.682C308.102 300.503 308.269 300.311 308.348 300.094C308.447 299.863 308.439 299.622 308.334 299.371L308.873 299.037C309.057 299.437 309.076 299.829 308.928 300.196C308.796 300.53 308.536 300.839 308.136 301.132ZM305.96 299.918L306.719 299.343C307.458 298.783 307.653 298.263 307.299 297.779C307.186 297.624 307.038 297.544 306.833 297.535C306.633 297.533 306.428 297.604 306.221 297.755C305.905 297.986 305.703 298.292 305.608 298.679C305.516 299.053 305.563 299.376 305.752 299.634L305.96 299.918Z"
                    fill="white" />
                <path
                    d="M304.32 305.315L303.587 304.198L302.731 304.759L302.437 304.311L303.294 303.749L301.851 301.548C301.767 301.421 301.686 301.34 301.597 301.322C301.515 301.299 301.407 301.323 301.286 301.402L300.844 301.691L300.551 301.243L301.073 300.901C301.354 300.717 301.609 300.654 301.826 300.723C302.028 300.782 302.208 300.941 302.379 301.202L303.822 303.403L304.518 302.947L304.812 303.395L304.116 303.851L304.704 304.748L304.32 305.315Z"
                    fill="white" />
            </g>
        </g>
        <path fill-rule="evenodd" clip-rule="evenodd"
            d="M243 243C256.662 243 268.26 236.072 272.389 224.573C274.222 219.467 278.326 214.892 283.75 214.756L394 212V307H92V212L202.25 214.756C207.674 214.892 211.778 219.467 213.611 224.573C217.74 236.072 229.338 243 243 243Z"
            fill="#F3CDBA" />
    </g>
    <defs>
        <clipPath id="clip0_24216_1409">
            <rect width="480" height="300" fill="white" />
        </clipPath>
    </defs>
</svg>
    